<svg width="12" height="8" viewBox="0 0 12 8" fill="none" xmlns="http://www.w3.org/2000/svg">
    <path d="M1.24149 7.52345C0.995002 7.78444 0.583612 7.79619 0.322626 7.54971C0.0616388 7.30322 0.0498848 6.89183 0.296372 6.63084L1.24149 7.52345ZM5.9997 1.53869L5.52714 1.09238C5.64993 0.962367 5.82087 0.888687 5.9997 0.888687C6.17853 0.888687 6.34947 0.962367 6.47226 1.09238L5.9997 1.53869ZM11.703 6.63084C11.9495 6.89183 11.9378 7.30322 11.6768 7.54971C11.4158 7.79619 11.0044 7.78444 10.7579 7.52345L11.703 6.63084ZM0.296372 6.63084L5.52714 1.09238L6.47226 1.98499L1.24149 7.52345L0.296372 6.63084ZM6.47226 1.09238L11.703 6.63084L10.7579 7.52345L5.52714 1.98499L6.47226 1.09238Z"
          fill="#0077E2"/>
</svg>
